<?xml version="1.0" encoding="UTF-8"?>
<svg id="Layer_1" data-name="Layer 1" xmlns="http://www.w3.org/2000/svg" viewBox="0 0 512 512">
  <defs>
    <style>
      .cls-1 {
        fill: #21c8ff;
      }
    </style>
  </defs>
  <path class="cls-1" d="m338.11,212.43v-59.94c0-21.92-8.54-42.53-24.05-58.06-15.51-15.51-36.13-24.05-58.06-24.05-45.27,0-82.11,36.83-82.11,82.11v59.94c-28.82,23.75-47.23,59.68-47.23,99.84,0,71.32,58.02,129.35,129.34,129.35s129.34-58.03,129.34-129.35c0-40.16-18.41-76.1-47.23-99.84Zm-82.11-112.04c13.92,0,27.01,5.42,36.84,15.25,9.84,9.86,15.27,22.94,15.27,36.85v41.41c-15.95-7.05-33.58-10.97-52.11-10.97s-36.16,3.92-52.11,10.97v-41.41c0-28.73,23.38-52.11,52.11-52.11Zm15,218.32v22.89c0,8.29-6.71,15-15,15s-15-6.71-15-15v-22.9c-8.9-5.18-14.89-14.82-14.89-25.84,0-16.48,13.41-29.89,29.89-29.89s29.9,13.41,29.9,29.89c0,11.02-6,20.66-14.9,25.85Z"/>
</svg>