<?xml version="1.0" encoding="UTF-8"?>
<svg id="Layer_1" data-name="Layer 1" xmlns="http://www.w3.org/2000/svg" viewBox="0 0 512 512">
  <defs>
    <style>
      .cls-1 {
        fill: #21c8ff;
      }
    </style>
  </defs>
  <path class="cls-1" d="m302.63,357.19c0,5.62-4.58,10.19-10.2,10.19h-60.41v-221.58c0-11.75-6.96-22.2-17.76-26.74l-40.22-18.67h118.39c5.62,0,10.2,4.57,10.2,10.19v73.17h30v-73.17c0-22.16-18.03-40.19-40.2-40.19h-163.72c-11.98,0-23.08,5.2-30.7,14.29-6,5.45-9.49,13.2-9.49,21.44v4.34s0,.08,0,.12v246.61h0v15.72c0,11.75,6.96,22.2,17.76,26.74l85.19,39.55c.24.11.48.21.72.31,3.5,1.41,7.17,2.1,10.82,2.1,5.7,0,11.36-1.69,16.24-4.98,7.99-5.4,12.77-14.39,12.77-24.03v-15.21h60.41c22.17,0,40.2-18.03,40.2-40.19v-73.17h-30v73.17Z"/>
  <path class="cls-1" d="m419.08,223.28l-42.07-42.07c-5.86-5.86-15.36-5.86-21.21,0-5.86,5.86-5.86,15.35,0,21.21l16.46,16.46h-114.93v30h114.93l-16.46,16.46c-5.86,5.86-5.86,15.36,0,21.21,2.93,2.93,6.77,4.39,10.61,4.39s7.68-1.46,10.61-4.39l42.07-42.07c5.86-5.86,5.86-15.35,0-21.21Z"/>
</svg>