<?xml version="1.0" encoding="UTF-8"?>
<svg id="Layer_1" data-name="Layer 1" xmlns="http://www.w3.org/2000/svg" viewBox="0 0 512 512">
  <defs>
    <style>
      .cls-1 {
        fill: #21c8ff;
      }
    </style>
  </defs>
  <path class="cls-1" d="m379.56,184.19c-7.13,4.21-9.5,13.41-5.29,20.54,12.41,21.01,18.96,45.1,18.96,69.65,0,75.67-61.56,137.23-137.23,137.23s-137.23-61.56-137.23-137.23c0-62.87,42.5-116,100.29-132.17l-11.22,13.1c-5.39,6.29-4.66,15.76,1.63,21.15,2.83,2.42,6.3,3.61,9.75,3.61,4.23,0,8.43-1.78,11.4-5.24l36.77-42.91s.05-.07.08-.11c.2-.23.38-.48.56-.73.11-.15.24-.3.34-.46.17-.24.32-.5.47-.75.1-.17.22-.34.31-.51.13-.24.24-.49.36-.74.09-.19.2-.39.28-.58.1-.23.18-.48.27-.72.08-.22.17-.43.24-.66.07-.22.12-.45.18-.68.07-.25.14-.49.19-.74.04-.21.07-.42.1-.63.05-.28.1-.55.13-.83.02-.2.03-.4.04-.6.02-.3.04-.59.05-.89,0-.05,0-.09,0-.14,0-.17-.02-.34-.03-.51,0-.27-.02-.55-.04-.82-.02-.25-.06-.5-.09-.74-.03-.23-.06-.47-.11-.7-.05-.26-.11-.52-.18-.78-.05-.21-.1-.42-.16-.64-.07-.26-.16-.51-.25-.76-.07-.21-.15-.43-.23-.64-.09-.23-.2-.46-.3-.69-.1-.22-.2-.44-.32-.66-.11-.21-.22-.41-.34-.61-.13-.22-.26-.45-.4-.67-.12-.19-.26-.37-.39-.55-.15-.21-.31-.42-.47-.63-.15-.19-.31-.37-.47-.55-.16-.18-.32-.37-.49-.54-.2-.2-.4-.39-.61-.58-.12-.11-.23-.23-.36-.34l-42.91-36.77c-6.29-5.39-15.76-4.66-21.15,1.63-5.39,6.29-4.66,15.76,1.63,21.15l16.68,14.3c-74.97,16.51-131.24,83.46-131.24,163.32,0,92.21,75.02,167.23,167.23,167.23s167.23-75.02,167.23-167.23c0-29.91-8-59.27-23.13-84.9-4.21-7.13-13.41-9.5-20.54-5.29Z"/>
</svg>