<?xml version="1.0" encoding="UTF-8"?>
<svg id="Layer_1" data-name="Layer 1" xmlns="http://www.w3.org/2000/svg" viewBox="0 0 512 512">
  <defs>
    <style>
      .cls-1 {
        fill: #21c8ff;
      }
    </style>
  </defs>
  <path class="cls-1" d="m410.71,189.23c-11.94-23.4-29.37-44.14-50.41-59.97-6.62-4.98-16.02-3.65-21,2.96-4.98,6.62-3.66,16.02,2.96,21.01,36.43,27.42,57.33,69.26,57.33,114.8,0,79.18-64.41,143.59-143.58,143.59s-143.59-64.41-143.59-143.59c0-45.53,20.9-87.38,57.33-114.8,6.62-4.98,7.95-14.39,2.96-21-4.98-6.62-14.38-7.95-21-2.96-21.04,15.84-38.47,36.57-50.41,59.97-12.53,24.55-18.88,51.06-18.88,78.79,0,95.72,77.87,173.59,173.59,173.59s173.58-77.87,173.58-173.59c0-27.74-6.35-54.25-18.88-78.79Z"/>
  <path class="cls-1" d="m255.98,245.71c8.28,0,15-6.72,15-15V85.38c0-8.28-6.72-15-15-15s-15,6.72-15,15v145.33c0,8.28,6.72,15,15,15Z"/>
</svg>